REM DIRINDEX 1\2,1\3,1\4
REM DIRNAME folder01,folder02,folder03,folder04
TITLE ""
FILE "DISC3Track37.mp3" MP3
  TRACK 01 AUDIO
    TITLE "0:"
    INDEX 01 00:00:00
  TRACK 02 AUDIO
    TITLE "4:cjc105_6111"
    INDEX 01 00:00:19
  TRACK 03 AUDIO
    TITLE "0:"
    INDEX 01 00:04:48
  TRACK 04 AUDIO
    TITLE "4:cjc105_6112"
    INDEX 01 00:05:12
  TRACK 05 AUDIO
    TITLE "0:"
    INDEX 01 00:07:39
  TRACK 06 AUDIO
    TITLE "2:cjc105_6113"
    INDEX 01 00:08:11
  TRACK 07 AUDIO
    TITLE "3:cjc105_6114"
    INDEX 01 00:09:20
  TRACK 08 AUDIO
    TITLE "0:"
    INDEX 01 00:10:21
  TRACK 09 AUDIO
    TITLE "2:cjc105_6115"
    INDEX 01 00:10:37
  TRACK 10 AUDIO
    TITLE "3:cjc105_6116"
    INDEX 01 00:12:05
  TRACK 11 AUDIO
    TITLE "0:"
    INDEX 01 00:13:12
  TRACK 12 AUDIO
    TITLE "2:cjc105_6117"
    INDEX 01 00:13:26
  TRACK 13 AUDIO
    TITLE "3:cjc105_6118"
    INDEX 01 00:14:41
  TRACK 14 AUDIO
    TITLE "0:"
    INDEX 01 00:15:70
  TRACK 15 AUDIO
    TITLE "2:cjc105_6119"
    INDEX 01 00:16:18
  TRACK 16 AUDIO
    TITLE "3:cjc105_6120"
    INDEX 01 00:17:14
  TRACK 17 AUDIO
    TITLE "0:"
    INDEX 01 00:18:21
  TRACK 18 AUDIO
    TITLE "2:cjc105_6121"
    INDEX 01 00:18:46
  TRACK 19 AUDIO
    TITLE "3:cjc105_6122"
    INDEX 01 00:19:65
  TRACK 20 AUDIO
    TITLE "0:"
    INDEX 01 00:21:02
  TRACK 21 AUDIO
    TITLE "2:cjc105_6123"
    INDEX 01 00:21:21
  TRACK 22 AUDIO
    TITLE "3:cjc105_6124"
    INDEX 01 00:22:34
  TRACK 23 AUDIO
    TITLE "0:"
    INDEX 01 00:24:12
  TRACK 24 AUDIO
    TITLE "2:cjc105_6125"
    INDEX 01 00:24:35
  TRACK 25 AUDIO
    TITLE "3:cjc105_6126"
    INDEX 01 00:25:50
  TRACK 26 AUDIO
    TITLE "0:"
    INDEX 01 00:27:04
  TRACK 27 AUDIO
    TITLE "2:cjc105_6127"
    INDEX 01 00:27:30
  TRACK 28 AUDIO
    TITLE "3:cjc105_6128"
    INDEX 01 00:28:55
  TRACK 29 AUDIO
    TITLE "0:"
    INDEX 01 00:29:70
  TRACK 30 AUDIO
    TITLE "2:cjc105_6129"
    INDEX 01 00:30:16
  TRACK 31 AUDIO
    TITLE "3:cjc105_6130"
    INDEX 01 00:31:55
  TRACK 32 AUDIO
    TITLE "0:"
    INDEX 01 00:33:09
  TRACK 33 AUDIO
    TITLE "2:cjc105_6131"
    INDEX 01 00:33:30
  TRACK 34 AUDIO
    TITLE "3:cjc105_6132"
    INDEX 01 00:34:57
  TRACK 35 AUDIO
    TITLE "0:"
    INDEX 01 00:36:13
  TRACK 36 AUDIO
    TITLE "2:cjc105_6133"
    INDEX 01 00:36:35
  TRACK 37 AUDIO
    TITLE "3:cjc105_6134"
    INDEX 01 00:37:57
  TRACK 38 AUDIO
    TITLE "0:"
    INDEX 01 00:39:07
  TRACK 39 AUDIO
    TITLE "2:cjc105_6135"
    INDEX 01 00:39:25
  TRACK 40 AUDIO
    TITLE "3:cjc105_6136"
    INDEX 01 00:40:38
  TRACK 41 AUDIO
    TITLE "0:"
    INDEX 01 00:41:61
  TRACK 42 AUDIO
    TITLE "2:cjc105_6137"
    INDEX 01 00:42:08
  TRACK 43 AUDIO
    TITLE "3:cjc105_6138"
    INDEX 01 00:43:15
  TRACK 44 AUDIO
    TITLE "0:"
    INDEX 01 00:44:36
  TRACK 45 AUDIO
    TITLE "2:cjc105_6139"
    INDEX 01 00:44:58
  TRACK 46 AUDIO
    TITLE "3:cjc105_6140"
    INDEX 01 00:46:23
  TRACK 47 AUDIO
    TITLE "0:"
    INDEX 01 00:48:00
  TRACK 48 AUDIO
    TITLE "2:cjc105_6141"
    INDEX 01 00:48:18
  TRACK 49 AUDIO
    TITLE "3:cjc105_6142"
    INDEX 01 00:50:74
  TRACK 50 AUDIO
    TITLE "0:"
    INDEX 01 00:52:73
  TRACK 51 AUDIO
    TITLE "2:cjc105_6143"
    INDEX 01 00:53:21
  TRACK 52 AUDIO
    TITLE "3:cjc105_6144"
    INDEX 01 00:54:32
  TRACK 53 AUDIO
    TITLE "0:"
    INDEX 01 00:56:12
  TRACK 54 AUDIO
    TITLE "2:cjc105_6145"
    INDEX 01 00:56:29
  TRACK 55 AUDIO
    TITLE "3:cjc105_6146"
    INDEX 01 00:58:11
  TRACK 56 AUDIO
    TITLE "0:"
    INDEX 01 00:59:63
  TRACK 57 AUDIO
    TITLE "2:cjc105_6147"
    INDEX 01 01:00:06
  TRACK 58 AUDIO
    TITLE "3:cjc105_6148"
    INDEX 01 01:01:34
  TRACK 59 AUDIO
    TITLE "0:"
    INDEX 01 01:03:10
  TRACK 60 AUDIO
    TITLE "2:cjc105_6149"
    INDEX 01 01:03:31
  TRACK 61 AUDIO
    TITLE "3:cjc105_6150"
    INDEX 01 01:04:52
  TRACK 62 AUDIO
    TITLE "0:"
    INDEX 01 01:06:12
  TRACK 63 AUDIO
    TITLE "2:cjc105_6151"
    INDEX 01 01:06:36
  TRACK 64 AUDIO
    TITLE "3:cjc105_6152"
    INDEX 01 01:07:45
  TRACK 65 AUDIO
    TITLE "0:"
    INDEX 01 01:10:22
  TRACK 66 AUDIO
    TITLE "2:cjc105_6153"
    INDEX 01 01:10:43
  TRACK 67 AUDIO
    TITLE "3:cjc105_6154"
    INDEX 01 01:12:30
  TRACK 68 AUDIO
    TITLE "0:"
    INDEX 01 01:13:67
  TRACK 69 AUDIO
    TITLE "2:cjc105_6155"
    INDEX 01 01:14:10
  TRACK 70 AUDIO
    TITLE "3:cjc105_6156"
    INDEX 01 01:15:13
  TRACK 71 AUDIO
    TITLE "0:"
    INDEX 01 01:16:30
  TRACK 72 AUDIO
    TITLE "2:cjc105_6157"
    INDEX 01 01:16:46
  TRACK 73 AUDIO
    TITLE "3:cjc105_6158"
    INDEX 01 01:18:13
  TRACK 74 AUDIO
    TITLE "0:"
    INDEX 01 01:19:64
  TRACK 75 AUDIO
    TITLE "2:cjc105_6159"
    INDEX 01 01:20:06
  TRACK 76 AUDIO
    TITLE "3:cjc105_6160"
    INDEX 01 01:21:74
  TRACK 77 AUDIO
    TITLE "0:"
    INDEX 01 01:24:06
  TRACK 78 AUDIO
    TITLE "2:cjc105_6161"
    INDEX 01 01:24:24
  TRACK 79 AUDIO
    TITLE "3:cjc105_6162"
    INDEX 01 01:27:22
  TRACK 80 AUDIO
    TITLE "0:"
    INDEX 01 01:28:72
  TRACK 81 AUDIO
    TITLE "2:cjc105_6163"
    INDEX 01 01:29:13
  TRACK 82 AUDIO
    TITLE "3:cjc105_6164"
    INDEX 01 01:31:00
  TRACK 83 AUDIO
    TITLE "0:"
    INDEX 01 01:32:64
  TRACK 84 AUDIO
    TITLE "2:cjc105_6165"
    INDEX 01 01:33:15
  TRACK 85 AUDIO
    TITLE "3:cjc105_6166"
    INDEX 01 01:34:40
  TRACK 86 AUDIO
    TITLE "0:"
    INDEX 01 01:35:63
